<svg width="21" height="20" viewBox="0 0 21 20" fill="none" xmlns="http://www.w3.org/2000/svg">
<g id="Plus" clip-path="url(#clip0_1473_4469)">
<path id="plus" fill-rule="evenodd" clip-rule="evenodd" d="M10.9958 0.833008C11.456 0.833008 11.8291 1.2061 11.8291 1.66634V9.16634H19.3291C19.7893 9.16634 20.1624 9.53944 20.1624 9.99967C20.1624 10.4599 19.7893 10.833 19.3291 10.833H11.8291V18.333C11.8291 18.7932 11.456 19.1663 10.9958 19.1663C10.5355 19.1663 10.1624 18.7932 10.1624 18.333V10.833H2.66243C2.2022 10.833 1.8291 10.4599 1.8291 9.99967C1.8291 9.53944 2.2022 9.16634 2.66243 9.16634H10.1624V1.66634C10.1624 1.2061 10.5355 0.833008 10.9958 0.833008Z" fill="#7772F1"/>
</g>
<defs>
<clipPath id="clip0_1473_4469">
<rect width="20" height="20" fill="white" transform="translate(0.996094)"/>
</clipPath>
</defs>
</svg>
